<svg width="38" height="38" viewBox="0 0 38 38" fill="none" xmlns="http://www.w3.org/2000/svg">
<g clip-path="url(#clip0_52_1169)">
<path d="M19 0C15.2422 0 11.5687 1.11433 8.44417 3.20208C5.31964 5.28982 2.88436 8.25722 1.4463 11.729C0.00823243 15.2008 -0.368031 19.0211 0.365088 22.7067C1.09821 26.3924 2.90778 29.7778 5.56498 32.435C8.22218 35.0922 11.6077 36.9018 15.2933 37.6349C18.9789 38.368 22.7992 37.9918 26.271 36.5537C29.7428 35.1156 32.7102 32.6804 34.7979 29.5558C36.8857 26.4313 38 22.7578 38 19C37.9946 13.9626 35.991 9.133 32.429 5.57099C28.867 2.00898 24.0374 0.00544838 19 0ZM25.3333 20.5833H20.5833V25.3333C20.5833 25.7533 20.4165 26.156 20.1196 26.4529C19.8227 26.7499 19.4199 26.9167 19 26.9167C18.5801 26.9167 18.1774 26.7499 17.8804 26.4529C17.5835 26.156 17.4167 25.7533 17.4167 25.3333V20.5833H12.6667C12.2467 20.5833 11.844 20.4165 11.5471 20.1196C11.2502 19.8227 11.0833 19.4199 11.0833 19C11.0833 18.5801 11.2502 18.1773 11.5471 17.8804C11.844 17.5835 12.2467 17.4167 12.6667 17.4167H17.4167V12.6667C17.4167 12.2467 17.5835 11.844 17.8804 11.5471C18.1774 11.2501 18.5801 11.0833 19 11.0833C19.4199 11.0833 19.8227 11.2501 20.1196 11.5471C20.4165 11.844 20.5833 12.2467 20.5833 12.6667V17.4167H25.3333C25.7533 17.4167 26.156 17.5835 26.4529 17.8804C26.7499 18.1773 26.9167 18.5801 26.9167 19C26.9167 19.4199 26.7499 19.8227 26.4529 20.1196C26.156 20.4165 25.7533 20.5833 25.3333 20.5833Z" fill="#3C4E74"/>
</g>
<defs>
<clipPath id="clip0_52_1169">
<rect width="38" height="38" fill="white"/>
</clipPath>
</defs>
</svg>
