<svg width="28" height="28" viewBox="0 0 28 28" fill="none" xmlns="http://www.w3.org/2000/svg">
<g clip-path="url(#clip0_75_998)">
<rect width="28" height="28" rx="14" fill="#3C4E74"/>
<path d="M16.1875 13.58L11.8663 17.9013C11.1675 18.6 10.2013 19 9.215 19H9V18.785C9 17.7988 9.4 16.8325 10.0988 16.1337L14.42 11.8125L16.1875 13.58ZM17.4913 8.74125L16.1875 10.045L17.955 11.8125L19.2588 10.5087C19.7463 10.0212 19.7463 9.22875 19.2588 8.74125C18.7713 8.25375 17.98 8.2525 17.4913 8.74125ZM29 14C29 22.2712 22.2712 29 14 29C5.72875 29 -1 22.2712 -1 14C-1 5.72875 5.72875 -1 14 -1C22.2712 -1 29 5.72875 29 14ZM21.0263 6.97375C19.5638 5.51125 17.1862 5.51125 15.7237 6.97375L8.33125 14.3663C7.15125 15.5463 6.5 17.1163 6.5 18.785V20.25C6.5 20.9413 7.05875 21.5 7.75 21.5H9.215C10.8838 21.5 12.4538 20.8488 13.6337 19.6688L21.0263 12.2763C22.4888 10.8138 22.4888 8.43625 21.0263 6.97375Z" fill="#F1F1F1"/>
</g>
<defs>
<clipPath id="clip0_75_998">
<rect width="28" height="28" rx="14" fill="white"/>
</clipPath>
</defs>
</svg>
