<svg width="30" height="28" viewBox="0 0 30 28" fill="none" xmlns="http://www.w3.org/2000/svg">
<path d="M26.5385 11.9312L26.5791 11.9402H9.18108L14.6504 6.37848C14.9182 6.10695 15.0651 5.73912 15.0651 5.35305C15.0651 4.96698 14.9182 4.60172 14.6504 4.32955L13.7994 3.46562C13.5317 3.19408 13.1751 3.04395 12.7949 3.04395C12.4144 3.04395 12.0576 3.19301 11.79 3.46454L2.41453 12.9766C2.14586 13.2492 1.99895 13.6123 2.00001 13.9986C1.99895 14.387 2.14586 14.7503 2.41453 15.0225L11.79 24.5354C12.0576 24.8067 12.4142 24.956 12.7949 24.956C13.1751 24.956 13.5317 24.8065 13.7994 24.5354L14.6504 23.6715C14.9182 23.4003 15.0651 23.0383 15.0651 22.6522C15.0651 22.2664 14.9182 21.9234 14.6504 21.6521L9.11935 16.0593H26.558C27.3415 16.0593 28 15.374 28 14.5794V13.3575C28 12.5628 27.3221 11.9312 26.5385 11.9312Z" fill="#3C4E74"/>
</svg>
