<svg width="48" height="48" viewBox="0 0 48 48" fill="none" xmlns="http://www.w3.org/2000/svg">
<g clip-path="url(#clip0_52_999)">
<path d="M24 29.9851C20.6863 29.9851 18 32.6714 18 35.9851V47.9851H30V35.9851C30 32.6714 27.3137 29.9851 24 29.9851Z" fill="#3C4E74"/>
<path d="M34 35.9851V47.9851H42C45.3137 47.9851 48 45.2988 48 41.9851V23.7431C48.0005 22.7041 47.5967 21.7057 46.874 20.9591L29.878 2.58507C26.8792 -0.659622 21.8178 -0.858841 18.5731 2.14003C18.419 2.28253 18.2705 2.43094 18.1281 2.58507L1.16203 20.9531C0.417469 21.7028 -0.000281108 22.7166 1.41921e-07 23.7731V41.9851C1.41921e-07 45.2988 2.68631 47.9851 6 47.9851H14V35.9851C14.0374 30.5315 18.4405 26.078 23.7568 25.9497C29.2509 25.8172 33.9581 30.3465 34 35.9851Z" fill="#3C4E74"/>
<path d="M24 29.9851C20.6863 29.9851 18 32.6714 18 35.9851V47.9851H30V35.9851C30 32.6714 27.3137 29.9851 24 29.9851Z" fill="#3C4E74"/>
</g>
<defs>
<clipPath id="clip0_52_999">
<rect width="48" height="48" fill="white"/>
</clipPath>
</defs>
</svg>
