<svg width="38" height="38" viewBox="0 0 38 38" fill="none" xmlns="http://www.w3.org/2000/svg">
<g clip-path="url(#clip0_52_1308)">
<path d="M38 7.26908V32.756L19 38.0317L0 32.756V7.26908C0 6.04833 0.53675 4.90042 1.47408 4.11983C1.50733 4.09133 1.5485 4.07392 1.58333 4.047V31.5527L19 36.3866L36.4167 31.5527V4.047C36.4515 4.07392 36.4911 4.09133 36.5259 4.11983C37.4633 4.902 38 6.04992 38 7.26908ZM19 33.2817L4.75 29.2093V5.54325C4.75 4.28925 5.32475 3.13817 6.32542 2.38292C7.32767 1.62767 8.59275 1.39492 9.79608 1.73692L16.4287 3.63217C17.5038 3.93933 18.4031 4.62017 19 5.50842C19.5969 4.62017 20.4963 3.93933 21.5713 3.63217L28.2039 1.73692C29.4072 1.39333 30.6739 1.62767 31.6746 2.38292C32.6753 3.13817 33.25 4.29083 33.25 5.54325V29.2093L19 33.2817ZM19.7917 31.4086L31.6667 28.0155V5.54325C31.6667 4.79117 31.3215 4.09925 30.7214 3.64642C30.3018 3.33133 29.8047 3.16667 29.298 3.16667C29.0779 3.16667 28.8578 3.19833 28.6393 3.26008L22.0052 5.15533C20.7021 5.52742 19.7917 6.7355 19.7917 8.09083V31.4086ZM18.2083 8.09083C18.2083 6.73392 17.2979 5.52583 15.9948 5.15533L9.36225 3.26008C8.63867 3.05267 7.88183 3.19358 7.28017 3.64642C6.68008 4.09925 6.33492 4.79117 6.33492 5.54325V28.0155L18.2099 31.4086V8.09083H18.2083Z" fill="#3C4E74"/>
</g>
<defs>
<clipPath id="clip0_52_1308">
<rect width="38" height="38" fill="white"/>
</clipPath>
</defs>
</svg>
