<svg width="38" height="38" viewBox="0 0 38 38" fill="none" xmlns="http://www.w3.org/2000/svg">
<g clip-path="url(#clip0_52_1174)">
<path d="M33.5 38H30.3333V30.0152C30.3321 28.7739 29.8384 27.5838 28.9606 26.706C28.0829 25.8283 26.8928 25.3346 25.6514 25.3333H12.8486C11.6072 25.3346 10.4171 25.8283 9.53936 26.706C8.6616 27.5838 8.16792 28.7739 8.16667 30.0152V38H5V30.0152C5.00251 27.9344 5.83022 25.9396 7.30157 24.4682C8.77292 22.9969 10.7678 22.1692 12.8486 22.1667H25.6514C27.7322 22.1692 29.7271 22.9969 31.1984 24.4682C32.6698 25.9396 33.4975 27.9344 33.5 30.0152V38Z" fill="#3C4E74"/>
<path d="M19.25 19C17.3711 19 15.5344 18.4428 13.9721 17.399C12.4098 16.3551 11.1922 14.8714 10.4731 13.1355C9.75412 11.3996 9.56598 9.48947 9.93254 7.64665C10.2991 5.80383 11.2039 4.11109 12.5325 2.78249C13.8611 1.45389 15.5538 0.549104 17.3966 0.182544C19.2395 -0.184015 21.1496 0.00411622 22.8855 0.723149C24.6214 1.44218 26.1051 2.65982 27.149 4.22209C28.1928 5.78435 28.75 7.62108 28.75 9.5C28.7475 12.0188 27.7458 14.4337 25.9647 16.2147C24.1837 17.9958 21.7688 18.9975 19.25 19ZM19.25 3.16667C17.9974 3.16667 16.7729 3.53811 15.7314 4.23403C14.6899 4.92995 13.8781 5.91908 13.3988 7.07634C12.9194 8.23361 12.794 9.50703 13.0384 10.7356C13.2827 11.9641 13.8859 13.0926 14.7717 13.9783C15.6574 14.8641 16.7859 15.4673 18.0144 15.7116C19.243 15.956 20.5164 15.8306 21.6737 15.3512C22.8309 14.8719 23.8201 14.0601 24.516 13.0186C25.2119 11.9771 25.5833 10.7526 25.5833 9.5C25.5833 7.8203 24.9161 6.20939 23.7283 5.02166C22.5406 3.83393 20.9297 3.16667 19.25 3.16667Z" fill="#3C4E74"/>
</g>
<defs>
<clipPath id="clip0_52_1174">
<rect width="38" height="38" fill="white"/>
</clipPath>
</defs>
</svg>
